<?xml version="1.0" standalone="no"?>
<!DOCTYPE svg PUBLIC "-//W3C//DTD SVG 20010904//EN"
 "http://www.w3.org/TR/2001/REC-SVG-20010904/DTD/svg10.dtd">
<svg version="1.0" xmlns="http://www.w3.org/2000/svg"
 width="980.000000pt" height="980.000000pt" viewBox="0 0 980.000000 980.000000"
 preserveAspectRatio="xMidYMid meet">

<g transform="translate(0.000000,980.000000) scale(0.100000,-0.100000)"
fill="#ffffff" stroke="none">
<path d="M4173 7109 c-530 -38 -1025 -265 -1411 -645 l-73 -72 -64 39 c-36 21
-67 39 -70 39 -3 0 -5 -243 -5 -540 0 -386 3 -540 11 -540 6 0 133 70 283 156
510 295 600 347 628 364 l28 17 -61 34 -61 34 34 28 c107 91 320 207 468 256
87 28 236 61 282 61 20 0 39 4 42 8 2 4 -119 79 -269 166 -151 87 -276 161
-279 164 -3 3 11 15 31 27 21 12 97 55 168 97 72 41 191 110 265 152 187 108
270 158 270 162 0 5 -83 3 -217 -7z m-748 -586 c0 -27 4 -76 9 -110 7 -55 6
-63 -8 -63 -14 0 -16 7 -11 34 6 30 3 36 -36 70 -23 20 -49 36 -56 36 -21 0
-15 16 12 28 20 9 25 9 25 -2 0 -8 12 -21 26 -31 l27 -17 -7 28 c-4 16 -13 32
-19 36 -8 5 -6 12 8 22 29 22 30 21 30 -31z m-109 -61 c13 -9 34 -46 34 -62 0
-19 -48 -60 -71 -60 -52 0 -79 72 -42 112 16 18 59 24 79 10z m-141 -73 c26
-33 57 -64 68 -68 18 -7 18 -9 -13 -31 -25 -18 -32 -20 -27 -8 4 11 -12 38
-44 78 -27 34 -49 59 -49 55 0 -3 -5 -3 -10 0 -11 7 5 35 20 35 4 0 29 -27 55
-61z m-21 -71 c20 -28 20 -58 0 -86 -17 -24 -12 -40 17 -51 19 -6 19 -8 -6
-31 -22 -20 -25 -21 -25 -6 0 24 -89 122 -107 118 -11 -3 -12 1 -3 17 6 12 17
21 24 21 8 0 16 9 19 20 7 29 61 27 81 -2z m-124 -78 c12 -8 11 -14 -8 -40
-13 -17 -20 -35 -17 -40 10 -17 33 -11 49 12 21 30 34 13 15 -20 -9 -17 -25
-28 -41 -30 -58 -7 -93 79 -46 112 26 19 28 19 48 6z m-88 -100 c27 -27 30
-36 25 -71 -3 -23 -19 -58 -39 -84 -32 -44 -56 -59 -44 -30 7 19 -99 106 -119
98 -27 -10 -15 12 35 65 61 64 95 69 142 22z"/>
<path d="M3244 6435 c-9 -22 1 -41 30 -60 29 -19 46 -13 46 16 0 41 -64 78
-76 44z"/>
<path d="M3077 6297 c-7 -20 38 -71 57 -64 35 14 7 77 -34 77 -10 0 -20 -6
-23 -13z"/>
<path d="M2980 6199 c0 -18 2 -19 15 -9 8 7 15 16 15 21 0 5 -7 9 -15 9 -9 0
-15 -9 -15 -21z"/>
<path d="M2819 6114 l-24 -26 35 -30 c19 -16 46 -37 59 -46 22 -15 25 -15 42
7 27 33 24 58 -10 92 -36 36 -70 37 -102 3z"/>
<path d="M5640 5656 l0 -546 55 31 c31 17 58 30 60 27 16 -15 27 -174 22 -318
-6 -188 -30 -310 -91 -469 -20 -52 -35 -96 -32 -98 2 -2 128 68 281 157 152
88 278 160 281 160 2 0 4 -195 4 -432 l0 -433 43 75 c281 495 359 1105 212
1658 -14 52 -25 97 -25 102 0 5 30 25 66 45 36 20 62 41 57 45 -4 4 -66 41
-138 82 -117 67 -769 444 -787 455 -5 2 -8 -241 -8 -541z m393 -7 c12 -6 29
-20 38 -32 l16 -20 21 21 c21 21 22 21 32 2 13 -24 13 -43 0 -35 -12 7 -132
-42 -146 -61 -10 -13 -13 -12 -19 3 -5 10 -7 23 -6 29 1 7 -5 14 -14 18 -23 8
-18 53 7 70 27 19 42 20 71 5z m80 -161 c42 -56 -20 -122 -81 -87 -38 21 -43
80 -10 103 32 23 67 16 91 -16z m41 -120 c9 -35 7 -41 -10 -34 -19 7 -146 -24
-156 -39 -7 -9 -27 10 -28 26 0 3 34 13 76 23 41 10 80 24 87 32 17 19 24 17
31 -8z m26 -116 c0 -45 -74 -69 -112 -35 -23 20 -23 46 -1 68 16 16 17 16 30
-1 7 -10 13 -26 13 -37 0 -12 6 -17 18 -15 13 3 17 13 16 43 l-2 39 19 -23
c11 -13 19 -30 19 -39z m20 -123 c0 -3 -19 -16 -42 -29 -24 -12 -51 -30 -60
-38 -17 -14 -18 -13 -18 17 0 18 4 30 9 26 11 -6 61 15 61 25 0 13 -54 19 -67
8 -10 -8 -13 -4 -13 14 l0 24 65 -20 c35 -12 65 -24 65 -27z m-62 -127 c4 -35
21 -42 43 -16 10 13 10 19 0 36 -10 16 -10 19 0 16 40 -13 35 -77 -6 -96 -51
-24 -110 31 -85 78 17 31 44 21 48 -18z m22 -107 c42 -22 64 -114 40 -170 -7
-17 -9 -17 -9 -2 -1 15 -11 17 -74 17 -43 0 -78 -5 -85 -12 -9 -9 -12 -4 -12
23 2 133 55 188 140 144z"/>
<path d="M5991 5623 c-22 -15 -28 -47 -11 -58 16 -10 70 24 70 44 0 25 -33 33
-59 14z"/>
<path d="M6030 5470 c-41 -41 13 -70 61 -32 28 24 20 52 -16 52 -14 0 -34 -9
-45 -20z"/>
<path d="M6075 5257 c-4 -10 -3 -23 3 -29 14 -14 21 3 12 27 -7 19 -8 19 -15
2z"/>
<path d="M6100 4990 c0 -11 7 -20 15 -20 17 0 18 2 9 24 -9 23 -24 20 -24 -4z"/>
<path d="M6083 4870 c-25 -10 -43 -39 -43 -68 0 -24 25 -32 98 -32 l52 0 0 33
c0 53 -56 88 -107 67z"/>
<path d="M4265 5683 c-7 -70 -15 -83 -52 -83 -16 0 -28 14 -51 65 l-31 64 -48
-16 c-26 -8 -52 -19 -57 -24 -5 -4 -2 -36 6 -72 l15 -65 -33 -15 -32 -16 -38
47 c-21 26 -41 51 -45 55 -4 5 -30 -8 -57 -29 -56 -41 -56 -36 -4 -118 l24
-39 -25 -25 -25 -25 -58 36 c-65 39 -66 39 -109 -23 l-27 -39 53 -49 53 -49
-17 -27 c-20 -30 -24 -31 -97 -11 -30 8 -55 13 -56 12 -6 -5 -44 -110 -42
-112 2 -2 30 -16 63 -32 55 -27 60 -31 57 -58 -2 -17 -6 -32 -9 -35 -2 -3 -35
-7 -71 -10 l-67 -5 -3 -61 -3 -62 69 -7 c60 -6 71 -10 76 -28 12 -45 7 -52
-59 -76 -51 -18 -65 -27 -61 -40 3 -9 10 -36 16 -60 13 -48 0 -46 120 -25 32
5 36 3 47 -27 7 -18 12 -33 10 -34 -1 0 -26 -20 -54 -44 l-53 -43 32 -46 c17
-26 32 -48 34 -50 1 -2 30 11 64 28 l63 32 24 -25 24 -24 -39 -59 -39 -58 50
-40 50 -40 47 53 46 53 36 -22 36 -21 -12 -47 c-7 -26 -16 -57 -20 -68 -6 -20
0 -24 52 -42 l59 -20 32 65 c24 49 36 63 49 59 9 -2 31 -7 48 -11 31 -6 32 -8
38 -76 l7 -69 63 0 64 0 4 66 c4 68 14 84 54 84 17 0 28 -14 49 -64 l27 -63
51 15 c29 8 55 17 59 21 4 3 1 35 -8 71 -14 60 -14 66 2 77 32 24 58 14 97
-37 l38 -50 44 30 c24 17 47 35 50 40 3 5 -9 36 -26 68 l-33 58 22 22 c12 12
24 22 27 22 3 0 31 -16 62 -36 30 -19 59 -32 63 -27 3 4 21 27 38 49 l32 42
-51 47 c-48 45 -50 48 -39 76 14 33 24 34 100 14 30 -8 55 -13 56 -12 9 12 34
109 30 116 -3 4 -30 19 -61 31 -57 23 -67 40 -45 81 9 16 22 19 75 19 l65 0 0
64 0 64 -67 8 -68 9 -3 35 c-3 34 -2 35 59 59 59 23 61 24 56 55 -3 17 -10 44
-16 60 -10 25 -15 28 -44 22 -98 -20 -101 -20 -120 12 l-17 30 47 38 c27 21
52 41 56 45 9 7 -10 49 -41 88 l-19 24 -55 -32 c-67 -38 -73 -38 -94 -6 -16
25 -15 27 20 80 20 30 36 56 36 59 0 2 -21 20 -46 41 l-46 38 -51 -51 -52 -51
-33 21 c-20 13 -31 26 -28 37 2 9 9 38 16 64 7 26 11 49 9 51 -10 7 -111 47
-113 44 -1 -2 -15 -31 -31 -66 -28 -60 -30 -62 -60 -57 -71 15 -75 20 -75 108
l0 47 -64 0 -64 0 -7 -67z m290 -311 c332 -160 406 -582 146 -841 -79 -79
-170 -127 -277 -146 -367 -64 -680 262 -603 627 39 182 190 342 370 393 37 10
88 14 165 12 107 -3 114 -5 199 -45z"/>
<path d="M4240 5339 c-72 -14 -167 -67 -225 -124 -173 -174 -173 -457 1 -631
183 -183 468 -176 647 15 126 135 154 342 67 511 -30 60 -119 151 -178 183
-94 51 -204 67 -312 46z m231 -172 c117 -60 186 -195 161 -313 -23 -110 -73
-179 -165 -224 -150 -73 -327 -15 -405 134 -23 44 -27 63 -27 136 0 73 4 92
27 136 33 62 104 127 161 148 23 8 74 15 114 15 62 1 80 -3 134 -32z"/>
<path d="M5850 4271 c-140 -81 -347 -200 -460 -265 -113 -65 -209 -122 -214
-126 -5 -5 17 -23 48 -40 56 -32 57 -33 39 -52 -28 -32 -200 -143 -288 -186
-148 -74 -384 -142 -489 -142 -20 0 -36 -3 -36 -7 1 -5 126 -80 280 -168 154
-88 280 -162 280 -165 0 -3 -78 -50 -173 -104 -435 -251 -553 -320 -562 -329
-13 -13 225 -1 358 17 337 48 657 169 933 354 137 92 194 139 317 260 l89 87
69 -38 69 -38 0 545 c0 300 -1 546 -2 546 -2 -1 -118 -67 -258 -149z m-50
-456 c18 -13 37 -22 42 -18 6 3 5 -4 -1 -15 -14 -26 -31 -37 -31 -20 0 7 -15
23 -32 35 -29 21 -34 21 -48 7 -13 -14 -12 -18 18 -45 18 -16 37 -27 42 -24
14 9 12 -7 -4 -27 -16 -21 -26 -23 -26 -5 0 17 -58 60 -70 52 -16 -10 -12 12
5 29 8 8 15 18 15 23 0 14 23 33 40 33 9 0 31 -11 50 -25z m-133 -79 c-3 -8 1
-20 9 -26 16 -14 19 -56 4 -65 -5 -3 -10 -11 -10 -16 0 -6 14 1 31 15 24 21
34 24 50 16 24 -13 26 -66 2 -92 -22 -24 -60 -23 -68 2 -3 11 -13 20 -22 20
-8 0 -13 6 -10 13 2 6 -9 17 -25 24 -38 16 -37 48 4 90 35 36 43 40 35 19z
m-139 -78 c-6 -18 -28 -21 -28 -4 0 9 7 16 16 16 9 0 14 -5 12 -12z m113 -93
c8 5 3 -4 -11 -19 -22 -25 -25 -26 -28 -9 -5 23 -42 63 -59 63 -11 0 -11 4 -2
22 12 22 13 22 49 -21 26 -30 42 -41 51 -36z m-121 6 c0 -5 -8 -8 -17 -7 -10
0 -18 -5 -18 -13 0 -10 12 -15 40 -15 34 -1 40 -5 43 -24 4 -30 -16 -54 -41
-50 -29 4 -32 24 -5 23 13 0 23 5 23 10 0 6 -14 10 -31 11 -17 1 -36 4 -43 8
-15 9 -14 39 1 54 14 14 48 16 48 3z m-65 -71 c3 -5 -9 -23 -27 -39 l-33 -29
28 -7 c20 -5 33 -2 47 10 24 22 26 8 4 -23 -19 -28 -57 -28 -84 0 -37 40 -19
98 30 98 16 0 32 -4 35 -10z m-143 -41 c11 -6 26 -26 34 -45 21 -49 1 -91 -63
-132 -52 -34 -73 -41 -55 -19 14 16 -55 137 -77 137 -21 0 -5 14 53 44 54 28
77 32 108 15z"/>
<path d="M5622 3678 c3 -24 34 -36 50 -20 11 11 -16 42 -38 42 -10 0 -14 -8
-12 -22z"/>
<path d="M5716 3621 c-18 -20 -16 -51 3 -51 16 0 42 32 39 48 -5 24 -22 25
-42 3z"/>
<path d="M5394 3485 c-11 -27 1 -37 19 -17 16 17 16 20 2 26 -9 3 -18 0 -21
-9z"/>
<path d="M5230 3443 c-39 -15 -41 -24 -14 -72 15 -25 35 -54 44 -65 18 -18 19
-18 44 7 35 35 33 71 -3 108 -29 29 -42 33 -71 22z"/>
<path d="M3130 3820 c0 -192 3 -252 13 -255 7 -3 147 -4 312 -3 l300 3 -75 39
c-109 56 -236 144 -321 222 -81 75 -171 173 -197 217 -9 15 -20 27 -24 27 -4
0 -8 -113 -8 -250z"/>
<path d="M2394 3823 c4 -9 43 -72 87 -140 l81 -123 154 0 c85 0 154 2 154 4 0
3 -35 25 -77 49 -43 24 -149 85 -237 136 -87 50 -160 91 -163 91 -3 0 -2 -7 1
-17z"/>
<path d="M3860 3593 l0 -68 -1218 2 c-1183 2 -1216 2 -1187 -16 17 -10 138
-80 270 -156 405 -233 410 -236 389 -248 -11 -6 -158 -91 -329 -189 l-309
-178 1192 0 1192 0 0 -81 c0 -94 -8 -93 114 -20 45 26 131 76 191 111 61 34
151 86 200 115 50 29 168 97 262 151 95 55 172 101 173 104 0 3 -64 41 -142
85 -155 88 -152 86 -388 223 -91 52 -181 104 -200 115 -19 10 -72 41 -118 68
-45 27 -85 49 -87 49 -3 0 -5 -30 -5 -67z m-968 -485 c2 -62 7 -93 16 -96 7
-2 12 5 12 18 0 15 11 25 36 36 30 13 34 17 23 30 -12 14 -14 14 -25 0 -12
-17 -34 -22 -34 -7 0 12 20 27 46 35 31 10 54 -18 54 -64 0 -35 18 -58 34 -43
11 12 6 81 -6 86 -8 3 -3 9 12 15 14 5 26 6 28 1 2 -4 14 -3 27 3 35 16 55 -4
55 -56 0 -23 5 -47 12 -54 9 -9 4 -12 -26 -12 -32 0 -37 2 -27 14 7 8 11 30 9
48 -2 25 -8 33 -23 33 -15 0 -21 -8 -23 -33 -2 -18 2 -40 9 -49 11 -13 8 -14
-27 -12 -22 2 -44 1 -49 -2 -6 -3 -28 -4 -50 -2 -22 2 -62 3 -90 3 -40 -1 -48
1 -37 11 16 17 17 155 0 165 -8 5 -6 10 8 15 10 4 22 8 26 8 4 1 9 -40 10 -91z
m-67 48 c27 -41 -2 -86 -56 -86 -25 0 -26 -45 -1 -59 13 -8 6 -10 -33 -11 -38
0 -46 3 -37 12 16 16 16 140 0 156 -9 9 2 12 50 12 54 0 64 -3 77 -24z"/>
<path d="M2965 3046 c-19 -14 -19 -15 -2 -22 22 -8 30 -1 25 21 -3 14 -5 14
-23 1z"/>
<path d="M2756 3163 c-13 -13 -6 -73 8 -73 21 0 38 27 31 49 -6 20 -29 34 -39
24z"/>
<path d="M7430 3596 l0 -66 -630 0 -630 0 0 -145 c0 -80 -3 -145 -8 -145 -4 0
-45 22 -92 49 l-84 50 -77 -74 c-150 -143 -333 -276 -512 -370 -107 -56 -315
-145 -341 -145 -8 0 -18 -4 -21 -10 -4 -6 403 -10 1177 -10 651 0 1191 0 1201
0 15 0 17 -10 17 -75 0 -41 3 -75 7 -75 19 0 928 529 928 540 0 5 -54 40 -120
78 -66 38 -270 155 -453 261 -184 106 -340 195 -348 198 -11 4 -14 -8 -14 -61z
m-330 -446 c0 -36 2 -40 18 -31 33 18 60 -11 64 -69 3 -50 3 -50 -27 -50 -20
0 -26 3 -17 9 8 5 12 23 10 47 -2 32 -7 40 -25 42 -21 3 -23 -1 -23 -41 0 -27
5 -47 13 -50 6 -3 -5 -6 -27 -6 -33 -1 -37 1 -26 14 8 10 11 41 8 95 -3 71 -1
80 14 80 14 0 18 -9 18 -40z m-674 17 c-15 -11 -17 -23 -13 -73 3 -32 6 -65 6
-71 1 -21 39 -15 61 10 l22 22 -4 -25 c-3 -24 -7 -25 -73 -27 -38 -1 -64 0
-57 3 8 4 12 31 12 84 0 53 -4 80 -12 83 -7 3 7 6 31 6 39 1 43 -1 27 -12z
m165 -47 c14 -8 19 -21 19 -55 0 -25 5 -45 11 -45 5 0 8 -4 4 -9 -3 -5 -27 -9
-53 -8 -41 2 -47 5 -50 25 -3 18 3 26 27 35 32 12 40 30 20 43 -7 4 -16 -1
-21 -10 -11 -19 -28 -21 -28 -3 0 8 10 19 23 25 28 14 25 14 48 2z m319 -60
c0 -29 5 -50 13 -53 6 -3 -1 -6 -18 -6 -30 -1 -30 -1 -26 50 3 48 2 51 -20 47
-19 -2 -25 -10 -27 -36 -2 -18 2 -40 9 -48 9 -12 7 -14 -17 -14 -29 0 -29 1
-29 61 0 60 0 60 25 55 14 -2 32 -1 40 4 29 18 50 -8 50 -60z m114 64 c9 -3
16 -13 16 -20 0 -11 -4 -12 -19 -4 -29 15 -51 2 -51 -30 0 -36 22 -54 57 -45
23 5 25 4 14 -9 -8 -9 -29 -16 -47 -16 -27 0 -37 5 -46 25 -15 34 -1 76 32 92
30 15 25 14 44 7z m-344 -55 c0 -47 2 -50 23 -47 17 2 23 11 25 36 2 18 -2 40
-9 48 -9 11 -7 14 14 14 24 0 25 -3 23 -50 -1 -27 2 -50 6 -50 4 0 8 -4 8 -10
0 -15 -110 -13 -115 3 -2 6 -5 33 -8 60 -4 41 -2 47 14 47 16 0 19 -8 19 -51z"/>
<path d="M6563 3053 c-18 -7 -16 -33 2 -33 8 0 15 9 15 20 0 11 -1 20 -2 19
-2 0 -9 -3 -15 -6z"/>
</g>
</svg>
